<?xml version="1.0" encoding="UTF-8" standalone="no"?>
<svg
   viewBox="0 0 24 24"
   version="1.1"
   id="svg12"
   sodipodi:docname="favicon.svg"
   inkscape:version="1.1.2 (0a00cf5339, 2022-02-04)"
   xmlns:inkscape="http://www.inkscape.org/namespaces/inkscape"
   xmlns:sodipodi="http://sodipodi.sourceforge.net/DTD/sodipodi-0.dtd"
   xmlns="http://www.w3.org/2000/svg"
   xmlns:svg="http://www.w3.org/2000/svg">
  <defs
     id="defs16" />
  <sodipodi:namedview
     id="namedview14"
     pagecolor="#ffffff"
     bordercolor="#666666"
     borderopacity="1.0"
     inkscape:pageshadow="2"
     inkscape:pageopacity="0"
     inkscape:pagecheckerboard="true"
     showgrid="false"
     inkscape:zoom="17.25"
     inkscape:cx="26.434783"
     inkscape:cy="18.927536"
     inkscape:window-width="1920"
     inkscape:window-height="1007"
     inkscape:window-x="0"
     inkscape:window-y="0"
     inkscape:window-maximized="1"
     inkscape:current-layer="g2295" />
  <g
     data-name="Layer 2"
     id="g10">
    <g
       data-name="edit-2"
       id="g8"
       transform="matrix(1.1932367,0,0,1.1932367,-2.3768117,-2.3768117)">
      <rect
         width="24"
         height="24"
         opacity="0"
         id="rect2"
         x="0"
         y="0" />
      <path
         d="M 19,20 H 5 a 1,1 0 0 0 0,2 h 14 a 1,1 0 0 0 0,-2 z"
         id="path4" />
      <path
         d="m 5,18 h 0.09 l 4.17,-0.38 a 2,2 0 0 0 1.21,-0.57 l 9,-9 A 1.92,1.92 0 0 0 19.4,5.34 L 16.66,2.6 A 2,2 0 0 0 14,2.53 l -9,9 A 2,2 0 0 0 4.43,12.74 L 4,16.91 A 1,1 0 0 0 4.29,17.71 1,1 0 0 0 5,18 Z M 15.27,4 18,6.73 16,8.68 13.32,6 Z m -8.9,8.91 5.63,-5.59 2.7,2.7 -5.6,5.6 -3,0.28 z"
         id="path6" />
    </g>
  </g>
  <g
     id="g2295"
     transform="matrix(1.1932367,0,0,1.1932367,-2.3768001,-2.3768117)">
    <path
       style="fill:#ffcc00;stroke-width:0.00289855"
       d="m 6.1268093,15.750772 c 0.00963,-0.07814 0.070633,-0.742076 0.1355531,-1.47541 L 6.3803993,12.942029 7.3713591,11.947385 C 7.9163869,11.400331 9.1816052,10.142497 10.182956,9.1521976 l 1.820636,-1.8005436 1.331569,1.3313324 1.331568,1.3313326 -2.79782,2.797931 -2.7978203,2.797932 -1.3543849,0.124668 C 6.9717921,15.803417 6.305388,15.867017 6.235806,15.876183 l -0.1265129,0.01667 z"
       id="path924" />
    <path
       style="fill:#fff3c7;fill-opacity:1;stroke-width:0.00289855"
       d="M 14.667647,7.3198214 13.349967,6.0019021 13.609766,5.7329685 C 13.752656,5.585055 14.18368,5.1421678 14.567597,4.7487748 l 0.698032,-0.7152601 1.351771,1.3528079 1.351771,1.3528078 -0.970117,0.942029 c -0.533564,0.518116 -0.979929,0.9453032 -0.991922,0.9493052 -0.01199,0.004 -0.61476,-0.5857875 -1.339485,-1.3106432 z"
       id="path1000" />
    <path
       style="fill:#fff39e;fill-opacity:0.66001725;stroke-width:0.00289855"
       d="m 6.1344256,15.78768 c 0.00777,-0.05062 0.069543,-0.70907 0.1372664,-1.463233 L 6.3948257,12.953241 7.6974128,11.648662 C 8.4138358,10.931143 9.6758301,9.6772945 10.501845,8.8623315 l 1.501845,-1.4817509 1.317004,1.317004 1.317004,1.3170044 -2.79061,2.790497 -2.7906103,2.790498 -1.376065,0.128442 c -0.7568357,0.07064 -1.4174773,0.134571 -1.4680924,0.142062 -0.08912,0.01319 -0.091581,0.01071 -0.077895,-0.07841 z"
       id="path1150" />
    <path
       style="fill:#f1c0ff;fill-opacity:1;stroke-width:0.00289855"
       d="m 14.693934,7.3168017 c -0.716446,-0.7157918 -1.30263,-1.3102636 -1.30263,-1.3210485 0,-0.010785 0.419897,-0.4519008 0.933105,-0.9802575 l 0.933105,-0.9606486 1.3444,1.3421417 1.344401,1.3421416 -0.690549,0.6749145 C 16.875964,7.7852481 16.43727,8.2080481 16.28089,8.3536003 l -0.284327,0.2646409 z"
       id="path1189" />
    <path
       style="fill:#c7c7c7;fill-opacity:1;stroke-width:0.00289855"
       d="M 4.8471374,21.967765 C 4.5448269,21.917419 4.2614695,21.706474 4.1117269,21.42029 4.0532917,21.30861 4.0434815,21.248177 4.0435006,21 c 1.99e-5,-0.258364 0.00841,-0.305601 0.07727,-0.434783 0.0922,-0.172981 0.2831263,-0.362567 0.4481927,-0.445047 0.065828,-0.03289 0.2027849,-0.07329 0.3043478,-0.08977 0.2563365,-0.04159 13.9970409,-0.04159 14.2533779,0 0.101563,0.01648 0.238519,0.05688 0.304348,0.08977 0.165066,0.08248 0.355992,0.272066 0.448193,0.445047 0.06886,0.129194 0.07725,0.176395 0.07725,0.434783 0,0.258388 -0.0084,0.305589 -0.07725,0.434783 -0.0922,0.172981 -0.283127,0.362567 -0.448193,0.445047 -0.06583,0.03289 -0.202785,0.07329 -0.304348,0.08977 -0.230818,0.03745 -14.0543109,0.03568 -14.2795516,-0.0018 z"
       id="path1816" />
    <path
       style="fill:#c7c7c7;fill-opacity:1;stroke-width:0.00289855"
       d="M 4.818044,21.940373 C 4.5402265,21.885299 4.2343989,21.640955 4.1126737,21.376812 4.073304,21.291379 4.0592442,21.192222 4.0592442,21 c 0,-0.327853 0.052091,-0.452047 0.2853241,-0.680266 0.301052,-0.294579 -0.061525,-0.26803 4.0539824,-0.296843 2.0417783,-0.01429 5.1611203,-0.01429 7.2028983,0 4.123094,0.02887 3.761099,0.0022 4.058657,0.299415 0.230068,0.229834 0.28065,0.351974 0.28065,0.677694 0,0.327853 -0.05209,0.452047 -0.285324,0.680266 -0.314736,0.307968 0.558821,0.275658 -7.582968,0.280471 -3.9217394,0.0023 -7.1862283,-0.0068 -7.25442,-0.02036 z"
       id="path1931" />
  </g>
</svg>
