<?xml version="1.0" encoding="UTF-8" standalone="no"?>
<svg
   viewBox="0 0 24 24"
   version="1.1"
   id="svg1275"
   width="24"
   height="24"
   xmlns="http://www.w3.org/2000/svg"
   xmlns:svg="http://www.w3.org/2000/svg">
  <defs
     id="defs1279" />
  <g
     data-name="Layer 2"
     id="g1273">
    <g
       data-name="arrow-ios-upward"
       id="g1271">
      <rect
         width="24"
         height="24"
         transform="rotate(180,12,12)"
         opacity="0"
         id="rect1267"
         x="0"
         y="0" />
      <path
         d="M 18,15 A 1,1 0 0 1 17.36,14.77 L 12,10.29 6.63,14.61 A 1,1 0 0 1 5.22,14.46 1,1 0 0 1 5.37,13.05 l 6,-4.83 a 1,1 0 0 1 1.27,0 l 6,5 A 1,1 0 0 1 18.77,14.63 1,1 0 0 1 18,15 Z"
         id="path1269" />
    </g>
  </g>
</svg>
