<?xml version="1.0" encoding="UTF-8" standalone="no"?>
<svg
   viewBox="0 0 24 24"
   version="1.1"
   id="svg1204"
   width="24"
   height="24"
   xmlns="http://www.w3.org/2000/svg"
   xmlns:svg="http://www.w3.org/2000/svg">
  <defs
     id="defs1208" />
  <g
     data-name="Layer 2"
     id="g1202">
    <g
       data-name="checkmark-circle"
       id="g1200">
      <rect
         width="24"
         height="24"
         opacity="0"
         id="rect1194"
         x="0"
         y="0" />
      <path
         d="m 9.71,11.29 a 1.0040916,1.0040916 0 0 0 -1.42,1.42 l 3,3 A 1,1 0 0 0 12,16 1,1 0 0 0 12.72,15.66 l 7,-8 A 1,1 0 0 0 18.22,6.34 L 12,13.54 Z"
         id="path1196" />
      <path
         d="M 21,11 A 1,1 0 0 0 20,12 8,8 0 0 1 12,20 8,8 0 0 1 6.33,6.36 7.93,7.93 0 0 1 12,4 8.79,8.79 0 0 1 13.9,4.22 1,1 0 1 0 14.37,2.28 10.54,10.54 0 0 0 12,2 10,10 0 0 0 5,19.09 9.93,9.93 0 0 0 12,22 10,10 0 0 0 22,12 1,1 0 0 0 21,11 Z"
         id="path1198" />
    </g>
  </g>
</svg>
