<?xml version="1.0" encoding="UTF-8" standalone="no"?>
<svg
   viewBox="0 0 24 24"
   version="1.1"
   id="svg1131"
   width="24"
   height="24"
   xmlns="http://www.w3.org/2000/svg"
   xmlns:svg="http://www.w3.org/2000/svg">
  <defs
     id="defs1135" />
  <g
     data-name="Layer 2"
     id="g1129">
    <g
       data-name="checkmark-square"
       id="g1127">
      <rect
         width="24"
         height="24"
         opacity="0"
         id="rect1121"
         x="0"
         y="0" />
      <path
         d="m 20,11.83 a 1,1 0 0 0 -1,1 V 18.4 A 0.6,0.6 0 0 1 18.4,19 H 5.6 A 0.6,0.6 0 0 1 5,18.4 V 5.6 A 0.6,0.6 0 0 1 5.6,5 h 9.57 a 1,1 0 1 0 0,-2 H 5.6 A 2.61,2.61 0 0 0 3,5.6 V 18.4 A 2.61,2.61 0 0 0 5.6,21 H 18.4 A 2.61,2.61 0 0 0 21,18.4 v -5.57 a 1,1 0 0 0 -1,-1 z"
         id="path1123" />
      <path
         d="m 10.72,11 a 1,1 0 0 0 -1.44,1.38 l 2.22,2.33 a 1,1 0 0 0 0.72,0.31 1,1 0 0 0 0.72,-0.3 l 6.78,-7 a 1.0041912,1.0041912 0 1 0 -1.44,-1.4 l -6.05,6.26 z"
         id="path1125" />
    </g>
  </g>
</svg>
