<?xml version="1.0" encoding="UTF-8" standalone="no"?>
<svg
   viewBox="0 0 24 24"
   version="1.1"
   id="svg1058"
   width="24"
   height="24"
   xmlns="http://www.w3.org/2000/svg"
   xmlns:svg="http://www.w3.org/2000/svg">
  <defs
     id="defs1062" />
  <g
     data-name="Layer 2"
     id="g1056">
    <g
       data-name="edit-2"
       id="g1054">
      <rect
         width="24"
         height="24"
         opacity="0"
         id="rect1048"
         x="0"
         y="0" />
      <path
         d="M 19,20 H 5 a 1,1 0 0 0 0,2 h 14 a 1,1 0 0 0 0,-2 z"
         id="path1050" />
      <path
         d="m 5,18 h 0.09 l 4.17,-0.38 a 2,2 0 0 0 1.21,-0.57 l 9,-9 A 1.92,1.92 0 0 0 19.4,5.34 L 16.66,2.6 A 2,2 0 0 0 14,2.53 l -9,9 A 2,2 0 0 0 4.43,12.74 L 4,16.91 A 1,1 0 0 0 4.29,17.71 1,1 0 0 0 5,18 Z M 15.27,4 18,6.73 16,8.68 13.32,6 Z m -8.9,8.91 5.63,-5.59 2.7,2.7 -5.6,5.6 -3,0.28 z"
         id="path1052" />
    </g>
  </g>
</svg>
