<?xml version="1.0" encoding="UTF-8" standalone="no"?>
<svg
   viewBox="0 0 24 24"
   version="1.1"
   id="svg12"
   width="24"
   height="24"
   xmlns="http://www.w3.org/2000/svg"
   xmlns:svg="http://www.w3.org/2000/svg">
  <defs
     id="defs16" />
  <g
     data-name="Layer 2"
     id="g10">
    <g
       data-name="file-add"
       id="g8">
      <rect
         width="24"
         height="24"
         opacity="0"
         id="rect2"
         x="0"
         y="0" />
      <path
         d="m 19.74,8.33 -5.44,-6 A 1,1 0 0 0 13.56,2 h -7 A 2.53,2.53 0 0 0 4,4.5 v 15 A 2.53,2.53 0 0 0 6.56,22 H 17.44 A 2.53,2.53 0 0 0 20,19.5 V 9 A 1,1 0 0 0 19.74,8.33 Z M 14,5 16.74,8 h -2 A 0.79,0.79 0 0 1 14,7.15 Z m 3.44,15 H 6.56 A 0.53,0.53 0 0 1 6,19.5 V 4.5 A 0.53,0.53 0 0 1 6.56,4 H 12 V 7.15 A 2.79,2.79 0 0 0 14.71,10 H 18 v 9.5 A 0.53,0.53 0 0 1 17.44,20 Z"
         id="path4" />
      <path
         d="m 14,13 h -1 v -1 a 1,1 0 0 0 -2,0 v 1 h -1 a 1,1 0 0 0 0,2 h 1 v 1 a 1,1 0 0 0 2,0 v -1 h 1 a 1,1 0 0 0 0,-2 z"
         id="path6" />
    </g>
  </g>
</svg>
