<?xml version="1.0" encoding="UTF-8" standalone="no"?>
<svg
   width="24"
   height="24"
   viewBox="0 0 24 24"
   version="1.1"
   id="svg4"
   xmlns="http://www.w3.org/2000/svg"
   xmlns:svg="http://www.w3.org/2000/svg">
  <defs
     id="defs8" />
  <path
     d="m 12.000003,2.1704916 c -5.6256986,0 -10.1884059,4.5124251 -10.1884059,10.0780024 0,4.452796 2.9189779,8.230367 6.9680204,9.563182 0.5085711,0.09322 0.6732837,-0.219196 0.6732837,-0.484583 V 19.450905 C 6.6188265,20.060624 6.0287481,18.261701 6.0287481,18.261701 5.5651755,17.096852 4.8969855,16.786953 4.8969855,16.786953 c -0.9245974,-0.625676 0.070466,-0.612238 0.070466,-0.612238 1.0230858,0.07054 1.5613732,1.038873 1.5613732,1.038873 0.9084662,1.540255 2.3832383,1.095143 2.9648262,0.837314 0.090845,-0.65087 0.3548958,-1.095982 0.6469641,-1.347092 -2.2626752,-0.25615 -4.6416678,-1.120338 -4.6416678,-4.981053 0,-1.101021 0.3981964,-1.9996434 1.0494053,-2.7051035 -0.10528,-0.2544695 -0.4542331,-1.2799061 0.099336,-2.6673109 0,0 0.8558263,-0.2704264 2.8026614,1.0329951 C 10.262874,7.159942 11.133983,7.0482442 11.999997,7.044045 c 0.866015,0.0042 1.737972,0.115897 2.552196,0.3392927 1.945136,-1.3034215 2.799265,-1.0329951 2.799265,-1.0329951 0.554419,1.3882446 0.205466,2.4136812 0.100186,2.6673109 0.653756,0.7054601 1.048556,1.6049225 1.048556,2.7051035 0,3.870793 -2.383237,4.723224 -4.651856,4.972655 0.365084,0.312417 0.698755,0.925496 0.698755,1.866109 v 2.765572 c 0,0.267907 0.163014,0.582844 0.680076,0.483744 4.045646,-1.334496 6.961228,-5.111227 6.961228,-9.562343 0,-5.5655773 -4.561858,-10.0780024 -10.188406,-10.0780024 z"
     id="path2"
     style="stroke-width:0.844421" />
</svg>
