<?xml version="1.0" encoding="UTF-8" standalone="no"?>
<svg
   viewBox="0 0 24 24"
   version="1.1"
   id="svg910"
   width="24"
   height="24"
   xmlns="http://www.w3.org/2000/svg"
   xmlns:svg="http://www.w3.org/2000/svg">
  <defs
     id="defs914" />
  <g
     data-name="Layer 2"
     id="g908">
    <g
       data-name="paper-plane"
       id="g906">
      <rect
         width="24"
         height="24"
         opacity="0"
         id="rect902"
         x="0"
         y="0" />
      <path
         d="M 21,4 A 1.31,1.31 0 0 0 20.94,3.73 V 3.64 A 1,1 0 0 0 20.74,3.34 1,1 0 0 0 20.45,3.15 H 20.36 A 0.86,0.86 0 0 0 20.05,3 H 20 a 1,1 0 0 0 -0.3,0 l -18,6 a 1,1 0 0 0 0,1.9 l 8.53,2.84 2.84,8.53 a 1,1 0 0 0 1.9,0 l 6,-18 A 1,1 0 0 0 21,4 Z M 16.3,6.29 10.73,11.86 5.16,10 Z M 14,18.84 12.14,13.27 17.71,7.7 Z"
         id="path904" />
    </g>
  </g>
</svg>
