<?xml version="1.0" encoding="UTF-8" standalone="no"?>
<svg
   viewBox="0 0 24 24"
   version="1.1"
   id="svg839"
   width="24"
   height="24"
   xmlns="http://www.w3.org/2000/svg"
   xmlns:svg="http://www.w3.org/2000/svg">
  <defs
     id="defs843" />
  <g
     data-name="Layer 2"
     id="g837">
    <g
       data-name="save"
       id="g835">
      <rect
         width="24"
         height="24"
         opacity="0"
         id="rect831"
         x="0"
         y="0" />
      <path
         d="M 20.12,8.71 15.29,3.88 A 3,3 0 0 0 13.17,3 H 6 A 3,3 0 0 0 3,6 v 12 a 3,3 0 0 0 3,3 h 12 a 3,3 0 0 0 3,-3 V 10.83 A 3,3 0 0 0 20.12,8.71 Z M 10,19 v -2 h 4 v 2 z m 9,-1 a 1,1 0 0 1 -1,1 H 16 V 16 A 1,1 0 0 0 15,15 H 9 a 1,1 0 0 0 -1,1 v 3 H 6 A 1,1 0 0 1 5,18 V 6 A 1,1 0 0 1 6,5 h 2 v 5 a 1,1 0 0 0 1,1 h 4 A 1,1 0 0 0 13,9 H 10 V 5 h 3.17 a 1.05,1.05 0 0 1 0.71,0.29 l 4.83,4.83 A 1,1 0 0 1 19,10.83 Z"
         id="path833" />
    </g>
  </g>
</svg>
