<?xml version="1.0" encoding="UTF-8" standalone="no"?>
<svg
   viewBox="0 0 24 24"
   version="1.1"
   id="svg10"
   width="24"
   height="24"
   xmlns="http://www.w3.org/2000/svg"
   xmlns:svg="http://www.w3.org/2000/svg">
  <defs
     id="defs14" />
  <g
     data-name="Layer 2"
     id="g8">
    <g
       data-name="trash"
       id="g6">
      <rect
         width="24"
         height="24"
         opacity="0"
         id="rect2"
         x="0"
         y="0" />
      <path
         d="M 21,6 H 16 V 4.33 A 2.42,2.42 0 0 0 13.5,2 h -3 A 2.42,2.42 0 0 0 8,4.33 V 6 H 3 a 1,1 0 0 0 0,2 h 1 v 11 a 3,3 0 0 0 3,3 h 10 a 3,3 0 0 0 3,-3 V 8 h 1 A 1,1 0 0 0 21,6 Z M 10,4.33 C 10,4.17 10.21,4 10.5,4 h 3 C 13.79,4 14,4.17 14,4.33 V 6 H 10 Z M 18,19 a 1,1 0 0 1 -1,1 H 7 A 1,1 0 0 1 6,19 V 8 h 12 z"
         id="path4" />
    </g>
  </g>
</svg>
