<?xml version="1.0" encoding="UTF-8" standalone="no"?>
<svg
   viewBox="0 0 24 24"
   version="1.1"
   id="svg10"
   width="24"
   height="24"
   xmlns="http://www.w3.org/2000/svg"
   xmlns:svg="http://www.w3.org/2000/svg">
  <defs
     id="defs14" />
  <g
     data-name="Layer 2"
     id="g8">
    <g
       data-name="undo"
       id="g6">
      <rect
         width="24"
         height="24"
         transform="rotate(-90,12,12)"
         opacity="0"
         id="rect2"
         x="0"
         y="0" />
      <path
         d="m 20.22,21 a 1,1 0 0 1 -1,-0.76 8.91,8.91 0 0 0 -7.8,-6.69 v 1.12 A 1.78,1.78 0 0 1 10.33,16.31 2,2 0 0 1 8.18,16 L 3.12,11.59 a 1.76,1.76 0 0 1 0,-2.68 L 8.18,4.49 a 2,2 0 0 1 2.18,-0.3 1.78,1.78 0 0 1 1.09,1.64 V 7 a 10.89,10.89 0 0 1 10.05,10.75 10.29,10.29 0 0 1 -0.31,2.49 1,1 0 0 1 -1,0.76 z M 10.45,11.5 A 11.07,11.07 0 0 1 19.26,15.76 9,9 0 0 0 10.45,9 1,1 0 0 1 9.45,8 V 6.08 l -4.82,4.17 4.82,4.21 v -2 a 1,1 0 0 1 1,-0.96 z"
         id="path4" />
    </g>
  </g>
</svg>
